<?xml version="1.0" encoding="utf-8"?>
<svg xmlns="http://www.w3.org/2000/svg" xmlns:xlink="http://www.w3.org/1999/xlink" style="margin: auto; background: rgb(255, 255, 255); display: block; shape-rendering: auto;" width="200px" height="200px" viewBox="0 0 100 100" preserveAspectRatio="xMidYMid">
<g transform="rotate(0 50 50)">
  <rect x="47" y="24" rx="3" ry="6" width="6" height="12" fill="#25a6dd">
    <animate attributeName="opacity" values="1;0" keyTimes="0;1" dur="4.761904761904762s" begin="-4.365079365079365s" repeatCount="indefinite"></animate>
  </rect>
</g><g transform="rotate(30 50 50)">
  <rect x="47" y="24" rx="3" ry="6" width="6" height="12" fill="#25a6dd">
    <animate attributeName="opacity" values="1;0" keyTimes="0;1" dur="4.761904761904762s" begin="-3.9682539682539675s" repeatCount="indefinite"></animate>
  </rect>
</g><g transform="rotate(60 50 50)">
  <rect x="47" y="24" rx="3" ry="6" width="6" height="12" fill="#25a6dd">
    <animate attributeName="opacity" values="1;0" keyTimes="0;1" dur="4.761904761904762s" begin="-3.5714285714285707s" repeatCount="indefinite"></animate>
  </rect>
</g><g transform="rotate(90 50 50)">
  <rect x="47" y="24" rx="3" ry="6" width="6" height="12" fill="#25a6dd">
    <animate attributeName="opacity" values="1;0" keyTimes="0;1" dur="4.761904761904762s" begin="-3.174603174603174s" repeatCount="indefinite"></animate>
  </rect>
</g><g transform="rotate(120 50 50)">
  <rect x="47" y="24" rx="3" ry="6" width="6" height="12" fill="#25a6dd">
    <animate attributeName="opacity" values="1;0" keyTimes="0;1" dur="4.761904761904762s" begin="-2.7777777777777772s" repeatCount="indefinite"></animate>
  </rect>
</g><g transform="rotate(150 50 50)">
  <rect x="47" y="24" rx="3" ry="6" width="6" height="12" fill="#25a6dd">
    <animate attributeName="opacity" values="1;0" keyTimes="0;1" dur="4.761904761904762s" begin="-2.3809523809523805s" repeatCount="indefinite"></animate>
  </rect>
</g><g transform="rotate(180 50 50)">
  <rect x="47" y="24" rx="3" ry="6" width="6" height="12" fill="#25a6dd">
    <animate attributeName="opacity" values="1;0" keyTimes="0;1" dur="4.761904761904762s" begin="-1.9841269841269837s" repeatCount="indefinite"></animate>
  </rect>
</g><g transform="rotate(210 50 50)">
  <rect x="47" y="24" rx="3" ry="6" width="6" height="12" fill="#25a6dd">
    <animate attributeName="opacity" values="1;0" keyTimes="0;1" dur="4.761904761904762s" begin="-1.587301587301587s" repeatCount="indefinite"></animate>
  </rect>
</g><g transform="rotate(240 50 50)">
  <rect x="47" y="24" rx="3" ry="6" width="6" height="12" fill="#25a6dd">
    <animate attributeName="opacity" values="1;0" keyTimes="0;1" dur="4.761904761904762s" begin="-1.1904761904761902s" repeatCount="indefinite"></animate>
  </rect>
</g><g transform="rotate(270 50 50)">
  <rect x="47" y="24" rx="3" ry="6" width="6" height="12" fill="#25a6dd">
    <animate attributeName="opacity" values="1;0" keyTimes="0;1" dur="4.761904761904762s" begin="-0.7936507936507935s" repeatCount="indefinite"></animate>
  </rect>
</g><g transform="rotate(300 50 50)">
  <rect x="47" y="24" rx="3" ry="6" width="6" height="12" fill="#25a6dd">
    <animate attributeName="opacity" values="1;0" keyTimes="0;1" dur="4.761904761904762s" begin="-0.39682539682539675s" repeatCount="indefinite"></animate>
  </rect>
</g><g transform="rotate(330 50 50)">
  <rect x="47" y="24" rx="3" ry="6" width="6" height="12" fill="#25a6dd">
    <animate attributeName="opacity" values="1;0" keyTimes="0;1" dur="4.761904761904762s" begin="0s" repeatCount="indefinite"></animate>
  </rect>
</g>
<!-- [ldio] generated by https://loading.io/ --></svg>